<?xml version="1.0" encoding="UTF-8" standalone="no"?>
<!DOCTYPE svg PUBLIC "-//W3C//DTD SVG 1.1//EN" "http://www.w3.org/Graphics/SVG/1.1/DTD/svg11.dtd">
<svg version="1.1" xmlns="http://www.w3.org/2000/svg" xmlns:xlink="http://www.w3.org/1999/xlink" preserveAspectRatio="xMidYMid meet" viewBox="0 0 640 640" width="640" height="640"><defs><path d="M224.13 117.78L212.27 117.78L200.41 119.76L189.53 122.72L174.71 130.63L164.83 138.53L152.97 145.45L145.06 152.37L137.15 162.26L131.22 171.15L123.31 184L117.38 198.83L112.44 209.7L107.5 227.49L102.56 244.29L97.62 263.07L93.66 280.86L90.7 298.65L88.72 312.49L86.74 326.33L86.74 337.2L86.74 348.07L88.72 360.92L90.7 371.79L95.64 388.59L101.57 405.4L107.5 419.23L113.43 430.1L120.35 440.98L129.24 450.86L138.14 458.77L147.03 466.67L156.92 472.6L168.78 479.52L180.64 486.44L191.51 491.38L201.4 496.33L212.27 502.26L227.09 507.2L243.9 514.12L253.78 519.06L269.59 523.01L283.43 525.98L295.29 525.98L308.14 526.97L320 526.97L330.87 527.95L351.63 527.95L362.5 527.95L377.33 527.95L390.17 526.97L402.03 524.99L412.91 522.02L431.69 515.1L441.57 512.14L459.36 504.23L469.24 499.29L485.06 488.42L498.9 477.55L508.78 466.67L518.66 455.8L528.55 444.93L535.47 432.08L542.38 419.23L549.3 403.42L553.26 393.53L557.21 382.66L560.17 371.79L566.1 354L568.08 336.21L571.05 318.42L571.05 303.59L571.05 287.78L571.05 269.99L568.08 254.17L563.14 236.38L559.19 220.57L554.24 206.73L546.34 192.9L539.42 181.03L531.51 170.16L520.64 157.31L508.78 144.47L497.91 134.58L486.05 122.72L473.2 111.85L462.33 102.95L450.47 94.06L435.64 83.19L420.81 74.29L405.99 67.37L394.13 64.41L378.31 62.43L363.49 59.47L350.64 58.48L336.8 58.48L323.95 57.49L311.1 56.5L299.24 56.5L284.42 56.5L269.59 56.5L251.8 58.48L230.06 62.43L213.26 68.36L203.37 74.29L191.51 81.21L179.65 88.13L172.73 97.02L166.8 105.92" id="a2T3pLuuYf"></path></defs><g><g><g><g><use xlink:href="#a2T3pLuuYf" opacity="1" fill-opacity="0" stroke="#1981a8" stroke-width="10" stroke-opacity="1"></use></g></g></g></g></svg>