<?xml version="1.0" encoding="UTF-8" standalone="no"?>
<!DOCTYPE svg PUBLIC "-//W3C//DTD SVG 1.1//EN" "http://www.w3.org/Graphics/SVG/1.1/DTD/svg11.dtd">
<svg version="1.1" xmlns="http://www.w3.org/2000/svg" xmlns:xlink="http://www.w3.org/1999/xlink" preserveAspectRatio="xMidYMid meet" viewBox="0 0 640 640" width="640" height="640"><defs><path d="M96.63 108.88L102.12 120.74L113.09 133.78L130.93 149.19L161.11 172.9L196.78 203.72L243.42 242.84L288.7 281.96L333.97 319.9L390.22 362.58L438.24 401.7L475.28 434.89L504.09 462.16L520.55 481.13L531.53 494.17L543.87 509.58L556.22 524.99" id="bjZvTdL1"></path><path d="M130.23 482.49L138.77 471.23L150.96 459.98L168.02 441.97L197.28 414.96L239.95 374.44L288.71 330.55L344.79 279.9L410.62 225.88L469.14 180.86L520.34 143.72L559.35 115.58L580.07 100.95L589.83 93.07" id="a2br5HhcKA"></path></defs><g><g><g><use xlink:href="#bjZvTdL1" opacity="1" fill="#fa2c52" fill-opacity="1"></use><g><use xlink:href="#bjZvTdL1" opacity="1" fill-opacity="0" stroke="#000000" stroke-width="1" stroke-opacity="1"></use></g></g><g><use xlink:href="#a2br5HhcKA" opacity="1" fill="#fa2c52" fill-opacity="1"></use><g><use xlink:href="#a2br5HhcKA" opacity="1" fill-opacity="0" stroke="#000000" stroke-width="1" stroke-opacity="1"></use></g></g></g></g></svg>